# xmcd CD database file
#
# Track frame offsets:
#	150
#	20257
#	39936
#	53777
#
# Disc length: 866 seconds
#
# Revision: 0
# Processed by: cddbd v1.5PL3 Copyright (c) Steve Scherf et al.
# Submitted via: CDex 1.40Release
#
DISCID=24036004
DTITLE=加藤いづみ - the new world
DYEAR=2002
DGENRE=Pop
TTITLE0=新世界
TTITLE1=冷たい心
TTITLE2=初雪
TTITLE3=under the Sun , over the Moon
EXTD=YEAR: 2002 ID3G: 13
EXTT0=
EXTT1=
EXTT2=
EXTT3=
PLAYORDER=
